<svg width="488" height="399" viewBox="0 0 488 399" fill="none" xmlns="http://www.w3.org/2000/svg">
<g clip-path="url(#clip0_32324_894)">
<path d="M64.9754 335.771H57.1548V396.54H64.9754V335.771Z" fill="#034EA2"/>
<path d="M168.808 379.57L123.655 332.253L123.384 332.007V395.9H131.229V351.017L176.382 398.334L176.628 398.605V335.106H168.808V379.57Z" fill="#034EA2"/>
<path d="M333.384 335.771H325.563V396.54H333.384V335.771Z" fill="#034EA2"/>
<path d="M265.852 343.222C259.802 338.353 251.514 335.771 241.849 335.771H229.184V396.54H241.603C251.489 396.54 259.9 393.909 265.926 388.965C272.443 383.604 275.91 375.611 275.91 365.848C275.91 356.084 272.418 348.534 265.852 343.222ZM268.09 366.168C268.09 374.283 265.212 380.382 259.581 384.293C254.736 387.637 247.997 389.359 239.537 389.359H237.029V342.976H239.537C248.022 342.976 254.76 344.673 259.581 347.993C265.237 351.904 268.09 358.003 268.09 366.168Z" fill="#034EA2"/>
<path d="M412.746 332.302L412.623 332.007L383.161 396.342L383.062 396.564H391.621L398.63 381.168H426.617L433.577 396.49L433.626 396.588H442.184L412.746 332.327V332.302ZM423.297 373.84H401.925L412.623 349.517L423.321 373.84H423.297Z" fill="#034EA2"/>
<path d="M488 0H0V301.585H488V0Z" fill="#034EA2"/>
<path d="M480.844 154.175H7.15674V294.331H480.844V154.175Z" fill="#00A651"/>
<path d="M453.029 182.529V247.135L452.98 247.012L399.834 181.397V266.268H406.941V201.465L460.161 267.203V182.529H453.029Z" fill="white"/>
<path d="M334.908 180.956C310.906 180.956 291.403 200.458 291.403 224.461C291.403 248.464 310.906 267.942 334.908 267.942C358.911 267.942 378.389 248.439 378.389 224.461C378.389 200.483 358.911 180.956 334.908 180.956ZM334.908 260.834C314.816 260.834 298.535 244.554 298.535 224.461C298.535 204.369 314.816 188.063 334.908 188.063C355.001 188.063 371.282 204.369 371.282 224.461C371.282 244.554 355.001 260.834 334.908 260.834Z" fill="white"/>
<path d="M334.908 207.688C325.637 207.688 318.136 215.189 318.136 224.461C318.136 233.733 325.637 241.233 334.908 241.233C344.18 241.233 351.705 233.708 351.705 224.461C351.705 215.214 344.155 207.688 334.908 207.688ZM334.908 234.101C329.571 234.101 325.243 229.773 325.243 224.461C325.243 219.149 329.571 214.82 334.908 214.82C340.245 214.82 344.549 219.124 344.549 224.461C344.549 229.798 340.269 234.101 334.908 234.101Z" fill="white"/>
<path d="M64.7536 223.158C59.1955 221.51 52.8751 219.936 48.0057 218.387C42.3001 216.346 38.1931 210.96 38.1931 204.615C38.1931 201.516 39.1768 198.663 40.8491 196.327C44.661 190.179 53.3424 187.154 60.0809 189.588C64.7536 191.31 68.5655 194.95 70.8526 199.007L76.8042 196.45C74.4432 190.006 69.1557 184.916 62.5894 182.776C57.1297 180.636 50.342 180.882 45.0791 183.44C36.4961 186.809 30.5938 195.294 30.5938 204.664C30.5938 212.952 35.5124 220.28 42.546 224.043C47.686 226.306 53.6867 227.806 58.5561 228.913C66.1554 230.167 72.7463 235.897 72.7463 243.742V243.988C72.6233 255.694 59.589 262.581 48.9402 260.638C41.2918 259.015 35.0452 253.579 32.2907 246.423L25.8228 248.956C28.8723 257.834 36.1518 264.72 45.3005 267.13C54.3753 269.516 64.6798 267.376 71.5904 261.375C76.6812 257.342 80.0013 251.12 80.0013 244.062C80.0013 234.717 73.3119 226.232 64.729 223.207" fill="white"/>
<path d="M257.096 223.158C251.562 221.51 245.242 219.936 240.348 218.387C234.667 216.346 230.56 210.96 230.56 204.615C230.56 201.516 231.544 198.663 233.216 196.327C237.077 190.179 245.66 187.154 252.448 189.588C257.096 191.31 260.957 194.95 263.22 199.007L269.171 196.45C266.786 190.006 261.596 184.916 255.005 182.776C249.546 180.636 242.734 180.882 237.446 183.44C228.888 186.809 223.01 195.294 223.01 204.664C223.01 212.952 227.879 220.28 234.913 224.043C240.028 226.306 246.004 227.806 250.923 228.913C258.522 230.167 265.089 235.897 265.089 243.742V243.988C264.966 255.694 251.956 262.581 241.283 260.638C233.634 259.015 227.437 253.579 224.658 246.423L218.165 248.956C221.215 257.834 228.543 264.72 237.667 267.13C246.718 269.516 257.071 267.376 263.908 261.375C268.999 257.342 272.319 251.12 272.319 244.062C272.319 234.717 265.63 226.232 257.047 223.207" fill="white"/>
<path d="M190.35 182.678H183.268V265.95H190.35V182.678Z" fill="white"/>
<path d="M128.056 178.226L92.5928 266.072H100.266L111.628 237.839H144.484L155.895 266.048H163.544L128.081 178.201L128.056 178.226ZM114.505 230.732L128.056 197.212L141.607 230.732H114.505Z" fill="white"/>
<path d="M56.7609 76.4611C56.7609 56.7129 72.525 39.8175 91.9781 39.8175C95.5687 39.8175 99.0363 40.3831 102.258 41.4406V33.9151C98.938 33.0298 95.4949 32.5625 91.9781 32.5625C80.7883 32.5625 70.2133 37.2106 62.1959 45.646C54.277 53.9831 49.8994 64.927 49.8994 76.4611C49.8994 87.9953 54.4245 99.2343 62.3189 107.571C70.3362 115.982 80.8621 120.606 91.9781 120.606C95.9376 120.606 99.7741 120.015 103.414 118.86V111.334C99.8233 112.637 95.9868 113.4 91.9781 113.4C72.525 113.4 56.7609 96.2339 56.7609 76.4611Z" fill="white"/>
<path d="M177.489 59.712C177.489 53.2686 175.103 47.2433 170.799 42.7182C166.496 38.1685 160.765 35.6846 154.666 35.6846H127.86V118.12H134.721V83.7148H151.223L167.873 118.12H175.866L158.995 83.2967C169.521 81.1325 177.489 71.3691 177.489 59.7366M154.666 76.4599H134.746V42.8657H154.666C163.495 42.8657 170.627 50.4158 170.627 59.712C170.627 69.0082 163.495 76.4844 154.666 76.4844" fill="white"/>
<path d="M207.54 74.9358H243.077V67.7546H207.54V43.2599H243.2V35.8574H200.236V118.884H243.446V111.702H207.54V74.9358Z" fill="white"/>
<path d="M382.225 42.8164H406.375V117.555H413.974V42.8164H438.1V35.168H382.225V42.8164Z" fill="white"/>
<path d="M359.402 34.1113H351.803V117.211H359.402V34.1113Z" fill="white"/>
<path d="M292.805 35.3171L269.688 35.2188V117.753H292.805C313.758 116.966 330.309 98.7672 330.309 76.5105C330.309 54.2538 313.709 36.0795 292.805 35.3171ZM292.805 110.474H276.549V42.4245H292.805C310.045 43.2115 323.448 58.1149 323.448 76.4859C323.448 94.8569 310.02 109.687 292.805 110.474Z" fill="white"/>
</g>
<defs>
<clipPath id="clip0_32324_894">
<rect width="488" height="398.604" fill="white"/>
</clipPath>
</defs>
</svg>
