<svg width="174" height="140" viewBox="0 0 174 140" fill="none" xmlns="http://www.w3.org/2000/svg">
<path d="M5.38636 56.9545V55.25L38.767 1.27273H40.1875V5.96023H38.483L8.65341 54.3977V54.6818H50.1307V56.9545H5.38636ZM38.767 74V56.2443V55.5341V1.27273H41.0398V74H38.767ZM87.0181 74.9943C82.4016 74.9943 78.4244 73.491 75.0863 70.4844C71.7719 67.4777 69.2151 63.1809 67.4158 57.5938C65.6166 52.0066 64.717 45.3542 64.717 37.6364C64.717 29.9186 65.6166 23.2661 67.4158 17.679C69.2151 12.0919 71.7719 7.79498 75.0863 4.78835C78.4244 1.78172 82.4016 0.278406 87.0181 0.278406C91.6346 0.278406 95.6 1.78172 98.9144 4.78835C102.252 7.79498 104.821 12.0919 106.62 17.679C108.42 23.2661 109.319 29.9186 109.319 37.6364C109.319 45.3542 108.42 52.0066 106.62 57.5938C104.821 63.1809 102.252 67.4777 98.9144 70.4844C95.6 73.491 91.6346 74.9943 87.0181 74.9943ZM87.0181 72.7216C93.2208 72.7216 98.1095 69.6084 101.684 63.3821C105.259 57.1558 107.047 48.5739 107.047 37.6364C107.047 30.3447 106.23 24.0829 104.596 18.8509C102.986 13.5952 100.69 9.57055 97.707 6.77699C94.7241 3.95975 91.1611 2.55113 87.0181 2.55113C80.8155 2.55113 75.9267 5.6643 72.3519 11.8906C68.7771 18.117 66.9897 26.6989 66.9897 37.6364C66.9897 44.928 67.7946 51.2017 69.4045 56.4574C71.038 61.6894 73.3462 65.714 76.3292 68.5312C79.3358 71.3248 82.8988 72.7216 87.0181 72.7216ZM123.941 56.9545V55.25L157.322 1.27273H158.742V5.96023H157.038L127.208 54.3977V54.6818H168.685V56.9545H123.941ZM157.322 74V56.2443V55.5341V1.27273H159.594V74H157.322Z" fill="#707070"/>
<path d="M0.721591 134V116.545H7.26705C8.60795 116.545 9.73295 116.795 10.642 117.295C11.5568 117.795 12.2472 118.483 12.7131 119.358C13.1847 120.227 13.4205 121.216 13.4205 122.324C13.4205 123.443 13.1847 124.437 12.7131 125.307C12.2415 126.176 11.5455 126.861 10.625 127.361C9.70455 127.855 8.57102 128.102 7.22443 128.102H2.88636V125.503H6.7983C7.58239 125.503 8.22443 125.366 8.72443 125.094C9.22443 124.821 9.59375 124.446 9.83239 123.969C10.0767 123.491 10.1989 122.943 10.1989 122.324C10.1989 121.705 10.0767 121.159 9.83239 120.688C9.59375 120.216 9.22159 119.849 8.71591 119.588C8.21591 119.321 7.57102 119.188 6.78125 119.188H3.88352V134H0.721591ZM19.5632 134.264C18.7337 134.264 17.9865 134.116 17.3217 133.821C16.6626 133.52 16.1399 133.077 15.7536 132.491C15.3729 131.906 15.1825 131.185 15.1825 130.327C15.1825 129.588 15.3189 128.977 15.5916 128.494C15.8643 128.011 16.2365 127.625 16.7081 127.335C17.1797 127.045 17.7109 126.827 18.3018 126.679C18.8984 126.526 19.5149 126.415 20.1513 126.347C20.9183 126.267 21.5405 126.196 22.0178 126.134C22.495 126.065 22.8416 125.963 23.0575 125.827C23.2791 125.685 23.3899 125.466 23.3899 125.17V125.119C23.3899 124.477 23.1996 123.98 22.8189 123.628C22.4382 123.276 21.8899 123.099 21.174 123.099C20.4183 123.099 19.8189 123.264 19.3757 123.594C18.9382 123.923 18.6428 124.312 18.4893 124.761L15.6087 124.352C15.8359 123.557 16.2109 122.892 16.7337 122.358C17.2564 121.818 17.8956 121.415 18.6513 121.148C19.407 120.875 20.2422 120.739 21.157 120.739C21.7876 120.739 22.4155 120.812 23.0405 120.96C23.6655 121.108 24.2365 121.352 24.7536 121.693C25.2706 122.028 25.6854 122.486 25.9979 123.065C26.3161 123.645 26.4751 124.369 26.4751 125.239V134H23.5092V132.202H23.407C23.2195 132.565 22.9553 132.906 22.6143 133.224C22.2791 133.537 21.8558 133.79 21.3445 133.983C20.8388 134.17 20.245 134.264 19.5632 134.264ZM20.3643 131.997C20.9837 131.997 21.5206 131.875 21.9751 131.631C22.4297 131.381 22.7791 131.051 23.0234 130.642C23.2734 130.233 23.3984 129.787 23.3984 129.304V127.761C23.3018 127.841 23.1371 127.915 22.9041 127.983C22.6768 128.051 22.4212 128.111 22.1371 128.162C21.853 128.213 21.5717 128.259 21.2933 128.298C21.0149 128.338 20.7734 128.372 20.5689 128.401C20.1087 128.463 19.6967 128.565 19.3331 128.707C18.9695 128.849 18.6825 129.048 18.4723 129.304C18.2621 129.554 18.157 129.878 18.157 130.276C18.157 130.844 18.3643 131.273 18.7791 131.562C19.1939 131.852 19.7223 131.997 20.3643 131.997ZM35.2706 139.182C34.1626 139.182 33.2109 139.031 32.4155 138.73C31.62 138.435 30.9808 138.037 30.4979 137.537C30.0149 137.037 29.6797 136.483 29.4922 135.875L32.2706 135.202C32.3956 135.457 32.5774 135.71 32.8161 135.96C33.0547 136.216 33.3757 136.426 33.7791 136.591C34.1882 136.761 34.7024 136.847 35.3217 136.847C36.1967 136.847 36.9212 136.634 37.495 136.207C38.0689 135.787 38.3558 135.094 38.3558 134.128V131.648H38.2024C38.0433 131.966 37.8104 132.293 37.5036 132.628C37.2024 132.963 36.8018 133.244 36.3018 133.472C35.8075 133.699 35.1854 133.812 34.4354 133.812C33.4297 133.812 32.5178 133.577 31.6996 133.105C30.8871 132.628 30.2393 131.918 29.7564 130.974C29.2791 130.026 29.0405 128.838 29.0405 127.412C29.0405 125.974 29.2791 124.761 29.7564 123.773C30.2393 122.778 30.8899 122.026 31.7081 121.514C32.5263 120.997 33.4382 120.739 34.4439 120.739C35.2109 120.739 35.8416 120.869 36.3359 121.131C36.8359 121.386 37.2337 121.696 37.5291 122.06C37.8246 122.418 38.049 122.756 38.2024 123.074H38.3729V120.909H41.4155V134.213C41.4155 135.332 41.1484 136.259 40.6143 136.991C40.0803 137.724 39.3501 138.273 38.424 138.636C37.4979 139 36.4467 139.182 35.2706 139.182ZM35.2962 131.392C35.9496 131.392 36.5064 131.233 36.9666 130.915C37.4268 130.597 37.7763 130.139 38.0149 129.543C38.2536 128.946 38.3729 128.23 38.3729 127.395C38.3729 126.571 38.2536 125.849 38.0149 125.23C37.782 124.611 37.4354 124.131 36.9751 123.79C36.5206 123.443 35.9609 123.27 35.2962 123.27C34.6087 123.27 34.0348 123.449 33.5746 123.807C33.1143 124.165 32.7678 124.656 32.5348 125.281C32.3018 125.901 32.1854 126.605 32.1854 127.395C32.1854 128.196 32.3018 128.898 32.5348 129.5C32.7734 130.097 33.1229 130.562 33.5831 130.898C34.049 131.227 34.62 131.392 35.2962 131.392ZM50.3729 134.256C49.0604 134.256 47.9268 133.983 46.9723 133.438C46.0234 132.886 45.2933 132.108 44.782 131.102C44.2706 130.091 44.0149 128.901 44.0149 127.531C44.0149 126.185 44.2706 125.003 44.782 123.986C45.299 122.963 46.0206 122.168 46.9467 121.599C47.8729 121.026 48.9609 120.739 50.2109 120.739C51.0178 120.739 51.7791 120.869 52.495 121.131C53.2166 121.386 53.853 121.784 54.4041 122.324C54.9609 122.864 55.3984 123.551 55.7166 124.386C56.0348 125.216 56.1939 126.205 56.1939 127.352V128.298H45.4638V126.219H53.2365C53.2308 125.628 53.103 125.102 52.853 124.642C52.603 124.176 52.2536 123.81 51.8047 123.543C51.3615 123.276 50.8445 123.142 50.2536 123.142C49.6229 123.142 49.0689 123.295 48.5916 123.602C48.1143 123.903 47.7422 124.301 47.4751 124.795C47.2138 125.284 47.0803 125.821 47.0746 126.406V128.222C47.0746 128.983 47.2138 129.636 47.4922 130.182C47.7706 130.722 48.1598 131.136 48.6598 131.426C49.1598 131.71 49.745 131.852 50.4155 131.852C50.8643 131.852 51.2706 131.79 51.6342 131.665C51.9979 131.534 52.3132 131.344 52.5803 131.094C52.8473 130.844 53.049 130.534 53.1854 130.165L56.0661 130.489C55.8842 131.25 55.5376 131.915 55.0263 132.483C54.5206 133.045 53.8729 133.483 53.0831 133.795C52.2933 134.102 51.3899 134.256 50.3729 134.256ZM67.8423 126.33V134H64.7571V120.909H67.706V123.134H67.8594C68.1605 122.401 68.6406 121.818 69.2997 121.386C69.9645 120.955 70.7855 120.739 71.7628 120.739C72.6662 120.739 73.4531 120.932 74.1236 121.318C74.7997 121.705 75.3224 122.264 75.6918 122.997C76.0668 123.73 76.2514 124.619 76.2457 125.665V134H73.1605V126.142C73.1605 125.267 72.9332 124.582 72.4787 124.088C72.0298 123.594 71.4077 123.347 70.6122 123.347C70.0724 123.347 69.5923 123.466 69.1719 123.705C68.7571 123.937 68.4304 124.276 68.1918 124.719C67.9588 125.162 67.8423 125.699 67.8423 126.33ZM85.0923 134.256C83.8139 134.256 82.706 133.974 81.7685 133.412C80.831 132.849 80.1037 132.062 79.5866 131.051C79.0753 130.04 78.8196 128.858 78.8196 127.506C78.8196 126.153 79.0753 124.969 79.5866 123.952C80.1037 122.935 80.831 122.145 81.7685 121.582C82.706 121.02 83.8139 120.739 85.0923 120.739C86.3707 120.739 87.4787 121.02 88.4162 121.582C89.3537 122.145 90.0781 122.935 90.5895 123.952C91.1065 124.969 91.3651 126.153 91.3651 127.506C91.3651 128.858 91.1065 130.04 90.5895 131.051C90.0781 132.062 89.3537 132.849 88.4162 133.412C87.4787 133.974 86.3707 134.256 85.0923 134.256ZM85.1094 131.784C85.8026 131.784 86.3821 131.594 86.848 131.213C87.3139 130.827 87.6605 130.31 87.8878 129.662C88.1207 129.014 88.2372 128.293 88.2372 127.497C88.2372 126.696 88.1207 125.972 87.8878 125.324C87.6605 124.67 87.3139 124.151 86.848 123.764C86.3821 123.378 85.8026 123.185 85.1094 123.185C84.3991 123.185 83.8082 123.378 83.3366 123.764C82.8707 124.151 82.5213 124.67 82.2884 125.324C82.0611 125.972 81.9474 126.696 81.9474 127.497C81.9474 128.293 82.0611 129.014 82.2884 129.662C82.5213 130.31 82.8707 130.827 83.3366 131.213C83.8082 131.594 84.3991 131.784 85.1094 131.784ZM100.521 120.909V123.295H92.995V120.909H100.521ZM94.853 117.773H97.9382V130.062C97.9382 130.477 98.0007 130.795 98.1257 131.017C98.2564 131.233 98.4268 131.381 98.6371 131.46C98.8473 131.54 99.0803 131.58 99.3359 131.58C99.5291 131.58 99.7053 131.565 99.8643 131.537C100.029 131.509 100.154 131.483 100.239 131.46L100.759 133.872C100.594 133.929 100.359 133.991 100.052 134.06C99.7507 134.128 99.3814 134.168 98.9439 134.179C98.1712 134.202 97.4751 134.085 96.8558 133.83C96.2365 133.568 95.745 133.165 95.3814 132.619C95.0234 132.074 94.8473 131.392 94.853 130.574V117.773ZM115.685 120.909V123.295H107.946V120.909H115.685ZM109.881 134V119.673C109.881 118.793 110.063 118.06 110.426 117.474C110.795 116.889 111.29 116.452 111.909 116.162C112.528 115.872 113.216 115.727 113.972 115.727C114.506 115.727 114.98 115.77 115.395 115.855C115.81 115.94 116.116 116.017 116.315 116.085L115.702 118.472C115.571 118.432 115.406 118.392 115.207 118.352C115.009 118.307 114.787 118.284 114.543 118.284C113.969 118.284 113.563 118.423 113.324 118.702C113.091 118.974 112.974 119.366 112.974 119.878V134H109.881ZM123.319 134.256C122.04 134.256 120.933 133.974 119.995 133.412C119.058 132.849 118.33 132.062 117.813 131.051C117.302 130.04 117.046 128.858 117.046 127.506C117.046 126.153 117.302 124.969 117.813 123.952C118.33 122.935 119.058 122.145 119.995 121.582C120.933 121.02 122.04 120.739 123.319 120.739C124.597 120.739 125.705 121.02 126.643 121.582C127.58 122.145 128.305 122.935 128.816 123.952C129.333 124.969 129.592 126.153 129.592 127.506C129.592 128.858 129.333 130.04 128.816 131.051C128.305 132.062 127.58 132.849 126.643 133.412C125.705 133.974 124.597 134.256 123.319 134.256ZM123.336 131.784C124.029 131.784 124.609 131.594 125.075 131.213C125.54 130.827 125.887 130.31 126.114 129.662C126.347 129.014 126.464 128.293 126.464 127.497C126.464 126.696 126.347 125.972 126.114 125.324C125.887 124.67 125.54 124.151 125.075 123.764C124.609 123.378 124.029 123.185 123.336 123.185C122.626 123.185 122.035 123.378 121.563 123.764C121.097 124.151 120.748 124.67 120.515 125.324C120.288 125.972 120.174 126.696 120.174 127.497C120.174 128.293 120.288 129.014 120.515 129.662C120.748 130.31 121.097 130.827 121.563 131.213C122.035 131.594 122.626 131.784 123.336 131.784ZM140.554 128.494V120.909H143.639V134H140.648V131.673H140.511C140.216 132.406 139.73 133.006 139.054 133.472C138.384 133.937 137.557 134.17 136.574 134.17C135.716 134.17 134.957 133.98 134.298 133.599C133.645 133.213 133.134 132.653 132.764 131.92C132.395 131.182 132.21 130.29 132.21 129.244V120.909H135.295V128.767C135.295 129.597 135.523 130.256 135.977 130.744C136.432 131.233 137.028 131.477 137.767 131.477C138.222 131.477 138.662 131.366 139.088 131.145C139.514 130.923 139.864 130.594 140.136 130.156C140.415 129.713 140.554 129.159 140.554 128.494ZM149.897 126.33V134H146.812V120.909H149.761V123.134H149.914C150.215 122.401 150.695 121.818 151.354 121.386C152.019 120.955 152.84 120.739 153.817 120.739C154.721 120.739 155.508 120.932 156.178 121.318C156.854 121.705 157.377 122.264 157.746 122.997C158.121 123.73 158.306 124.619 158.3 125.665V134H155.215V126.142C155.215 125.267 154.988 124.582 154.533 124.088C154.085 123.594 153.462 123.347 152.667 123.347C152.127 123.347 151.647 123.466 151.227 123.705C150.812 123.937 150.485 124.276 150.246 124.719C150.013 125.162 149.897 125.699 149.897 126.33ZM166.295 134.23C165.266 134.23 164.346 133.966 163.533 133.438C162.721 132.909 162.079 132.142 161.607 131.136C161.136 130.131 160.9 128.909 160.9 127.472C160.9 126.017 161.138 124.79 161.616 123.79C162.099 122.784 162.749 122.026 163.567 121.514C164.386 120.997 165.298 120.739 166.303 120.739C167.07 120.739 167.701 120.869 168.195 121.131C168.69 121.386 169.082 121.696 169.371 122.06C169.661 122.418 169.886 122.756 170.045 123.074H170.173V116.545H173.266V134H170.232V131.938H170.045C169.886 132.256 169.656 132.594 169.354 132.952C169.053 133.304 168.656 133.605 168.161 133.855C167.667 134.105 167.045 134.23 166.295 134.23ZM167.156 131.699C167.809 131.699 168.366 131.523 168.826 131.17C169.286 130.812 169.636 130.315 169.874 129.679C170.113 129.043 170.232 128.301 170.232 127.455C170.232 126.608 170.113 125.872 169.874 125.247C169.641 124.622 169.295 124.136 168.835 123.79C168.38 123.443 167.82 123.27 167.156 123.27C166.468 123.27 165.894 123.449 165.434 123.807C164.974 124.165 164.627 124.659 164.394 125.29C164.161 125.92 164.045 126.642 164.045 127.455C164.045 128.273 164.161 129.003 164.394 129.645C164.633 130.281 164.982 130.784 165.442 131.153C165.908 131.517 166.479 131.699 167.156 131.699Z" fill="#707070"/>
</svg>
